v 0.800 0.000 0.000
v 0.400 0.000 0.693
v -0.400 0.000 0.693
v -0.800 0.000 0.000
v -0.400 0.000 -0.693
v 0.400 0.000 -0.693
v 0.560 6.000 0.000
v 0.280 6.000 0.485
v -0.280 6.000 0.485
v -0.560 6.000 0.000
v -0.280 6.000 -0.485
v 0.280 6.000 -0.485
v -2.366 10.062 0.000
v 2.366 10.062 0.000
v -2.366 3.938 0.000
v 2.366 3.938 0.000
v 0.000 5.107 3.828
v 0.000 8.893 3.828
v 0.000 5.107 -3.828
v 0.000 8.893 -3.828
v 3.828 7.000 -2.366
v 3.828 7.000 2.366
v -3.828 7.000 -2.366
v -3.828 7.000 2.366
f 1 2 8 7
f 2 3 9 8
f 3 4 10 9
f 4 5 11 10
f 5 6 12 11
f 6 1 7 12
